<?xml version="1.0" encoding="utf-8"?>
<svg version="1.1" id="play-icon" xmlns="http://www.w3.org/2000/svg" xmlns:xlink="http://www.w3.org/1999/xlink" x="0px" y="0px"
	 width="71.163px" height="71.158px" viewBox="-0.5 -0.5 71.163 71.158" enable-background="new -0.5 -0.5 71.163 71.158"
	 xml:space="preserve">
<path fill="none" stroke="#FCFCFC" stroke-width="2" stroke-miterlimit="10" d="M5.788,18.099C2.761,23.283,1.25,28.942,1.25,35.08
	s1.511,11.799,4.538,16.98c3.024,5.183,7.128,9.287,12.312,12.312c5.183,3.024,10.844,4.536,16.981,4.536
	c6.137,0,11.798-1.512,16.98-4.536c5.184-3.024,9.288-7.129,12.312-12.312c3.025-5.184,4.539-10.843,4.539-16.98
	s-1.514-11.798-4.539-16.981c-3.024-5.183-7.129-9.287-12.312-12.311C46.879,2.762,41.218,1.25,35.081,1.25
	c-6.138,0-11.799,1.512-16.981,4.538C12.915,8.812,8.812,12.916,5.788,18.099z M28.032,51.597c-0.44,0.266-0.911,0.397-1.41,0.397
	c-0.47,0-0.94-0.116-1.41-0.352c-0.94-0.558-1.41-1.382-1.41-2.466V20.983c0-1.086,0.47-1.908,1.41-2.466
	c0.969-0.529,1.908-0.514,2.819,0.044l23.964,14.096c0.938,0.528,1.41,1.336,1.41,2.423c0,1.087-0.472,1.894-1.41,2.423
	L28.032,51.597z"/>
</svg>
